<svg id="Capa_1" enable-background="new 0 0 497 497" height="512" viewBox="0 0 497 497" width="512" xmlns="http://www.w3.org/2000/svg"><g><path d="m437 91h60v315h-60z" fill="#08e2ff"/><path d="m467 135.06-467-44.06v315l467-44.06z" fill="#73efff"/><path d="m497 406c0 4.142-3.358 7.5-7.5 7.5h-22.5l-30-25.78 30-25.78 9.89 6.57c12.56 8.34 20.11 22.41 20.11 37.49z" fill="#10beff"/><path d="m296.15 248.5h-95.3l-180.74 120.01c-12.56 8.34-20.11 22.41-20.11 37.49 0 4.142 3.358 7.5 7.5 7.5h459.5v-51.56z" fill="#08e2ff"/><path d="m489.5 83.5c4.142 0 7.5 3.358 7.5 7.5 0 15.08-7.55 29.15-20.11 37.49l-9.89 6.57-30-25.78 30-25.78z" fill="#73efff"/><path d="m467 83.5v51.56l-193.61 128.55c-15.08 10.01-34.7 10.01-49.78 0l-203.5-135.12c-12.56-8.34-20.11-22.41-20.11-37.49 0-4.142 3.358-7.5 7.5-7.5z" fill="#baf7ff"/></g></svg>